<svg xmlns="http://www.w3.org/2000/svg" width="414" height="284"><path d="M262.5 9.39c-33.797 11.264-58.808 22.758-78.546 36.097-10.598 7.163-11.208 7.434-13.772 6.137-1.475-.746-4.482-1.931-6.682-2.633-2.2-.703-5.421-2.513-7.159-4.023-2.557-2.223-4.55-2.886-10.463-3.48-6.187-.622-7.702-1.159-9.898-3.51-2.376-2.543-4.514-7.625-5.205-12.369-.294-2.019-6.937-4.566-11.986-4.594-5.62-.031-8.998 8.138-5.969 14.437 1.809 3.76 5.148 7.548 6.654 7.548 2.743 0 3.448 2.283 1.479 4.787-2.33 2.962-2.524 5.78-.453 6.575.825.316 1.5 1.252 1.5 2.08 0 .827.851 3.429 1.891 5.781 1.039 2.352 2.87 7.86 4.069 12.24 2.592 9.476 3.503 8.302-11.821 15.228L105.5 94.5l-16.25-.041-16.25-.04V100H42.901c-33.365 0-35.294.317-39.015 6.42-1.798 2.948-1.879 6.634-1.882 85.93L2 275.2l3.4 3.4 3.4 3.4h111.65c123.223 0 115.708.402 118.915-6.357 1.433-3.019 1.635-8.651 1.635-45.544 0-23.155.175-42.099.39-42.099.214 0 3.926-.65 8.25-1.443 7.197-1.322 18.496-2.967 20.814-3.031.525-.014 1.703 4.64 2.618 10.344 1.289 8.031 1.412 11.054.546 13.406-.864 2.345-.833 3.134.132 3.464 1.55.529 1.662 3.26.133 3.26-.655 0-.862.826-.5 2 .34 1.1.876 2.828 1.192 3.84.498 1.595-.321 1.988-6.155 2.955-10.882 1.803-10.756 3.931.486 8.227 14.337 5.48 37.399 4.055 48.893-3.022 3.742-2.303 3.517-3.552-.81-4.503-1.644-.361-2.989-1.143-2.989-1.737 0-.595-1.238.532-2.75 2.506-3.597 4.692-9.593 8.116-12.805 7.31-2.536-.637-3.178-2.005-1.445-3.076 1.511-.934 1.198-2.5-.5-2.5-.825 0-1.5-.429-1.5-.953 0-.992 6.204-3.032 9.252-3.041 3.625-.012 18.42-23.315 17.214-27.114-.361-1.136-.374-3.568-.03-5.405.504-2.685 1.466-3.745 4.911-5.413 2.357-1.141 5.492-2.074 6.969-2.074 2.362 0 2.684.39 2.68 3.25-.002 1.787-.909 4.735-2.015 6.549l-2.012 3.3 4.266 1.816c2.346.998 5.053 2.087 6.015 2.419 2.515.867 2.162 3.117-1.077 6.881-1.556 1.807-5.191 6.435-8.08 10.285-5.929 7.903-5.942 8.033-2.093 21.5 2.249 7.867 2.225 17.573-.069 27.809-.724 3.227-.668 4.803.207 5.858 1.767 2.129-1.845 5.306-7.797 6.859l-4.841 1.262 3 1.194c1.65.656 10.017 1.444 18.594 1.75l15.595.556.656-4.79c.361-2.635.268-5.287-.208-5.894-.476-.607-1.135-7.032-1.465-14.278-.417-9.166-1.204-14.969-2.588-19.076-2.416-7.172-1.968-9.319 2.44-11.693 3.049-1.642 8.476-7.997 8.476-9.926 0-.418 2.213-2.916 4.917-5.55 4.084-3.978 5.039-5.605 5.639-9.603.462-3.085.319-5.383-.4-6.396-.617-.87-2.973-4.659-5.234-8.42-2.695-4.48-5.696-7.928-8.703-10-2.525-1.739-5.89-4.291-7.477-5.671-3.184-2.768-2.214 2.611-14.665-81.361-2.191-14.779-4.266-27.154-4.61-27.5-.344-.347-4.279-.855-8.745-1.13l-8.12-.5-5.301-10.418c-2.916-5.729-5.301-9.728-5.301-8.886 0 2.175-3.608 1.713-5.427-.696-1.87-2.478-2.216-10.543-.373-8.7 3.314 3.314 2.116-.154-4.939-14.3-6.927-13.889-7.993-15.497-10.246-15.471-1.383.016-11.065 2.879-21.515 6.361m-38.368 19.645c-2.507 3.391-2.252 5.136 1.347 9.215 2.085 2.365 2.756 2.6 4.784 1.676 2.15-.98 2.304-1.505 1.738-5.919-1.051-8.195-4.074-10.104-7.869-4.972m60.681-1.352c.721.289 1.584.253 1.916-.079.332-.332-.258-.568-1.312-.525-1.165.048-1.402.285-.604.604M272.116 42.11c-.064.886 1.057 3.34 2.491 5.452 1.434 2.113 2.896 4.616 3.25 5.562.57 1.525.926 1.563 3.143.333 2.327-1.29 2.354-1.389.395-1.422-1.507-.025-2.368-.96-3.026-3.285-.506-1.788-1.908-3.688-3.115-4.224-1.206-.536-2.38-1.661-2.608-2.5-.351-1.294-.432-1.281-.53.084m-111.62 17.897c-.343.554.1 1.285.984 1.624 1.914.734 2.981-.075 2.061-1.564-.83-1.344-2.235-1.371-3.045-.06M305 152.532c0 .293.675 2.148 1.5 4.122.825 1.975 1.5 4.885 1.5 6.468 0 2.492.379 2.878 2.826 2.878 1.721 0 3.743.977 5.174 2.5 1.292 1.375 2.676 2.5 3.076 2.5.997 0 2.274-11.625 1.427-12.995-.491-.795-1.074-.776-2.089.066-1.121.931-2.221.433-5.413-2.451-3.412-3.082-8.001-4.853-8.001-3.088m6.657 26.175c-1.351.349-1.675 1.052-1.216 2.634.345 1.188 1.007 5.667 1.472 9.955.465 4.287 1.155 8.105 1.534 8.485.379.379 1.549-.429 2.599-1.796 1.443-1.877 1.915-4.152 1.932-9.301.031-9.527-1.106-11.322-6.321-9.977M289 180.9l-4.5.6.175 11.5c.096 6.325.268 14.425.383 18 .115 3.575.036 7.175-.175 8-.458 1.795 4.791 2.726 6.385 1.132.563-.563 2.421-.814 4.128-.559 2.508.376 2.72.283 1.104-.484-1.728-.82-1.559-.958 1.25-1.019 2.786-.06 3.25-.429 3.25-2.584 0-1.382.546-3.388 1.214-4.457 1.02-1.634.86-2.321-1-4.301-1.936-2.061-2.214-3.452-2.214-11.075 0-9.084-1.813-15.778-4.199-15.503-.716.083-3.326.42-5.801.75" fill="undefined" fill-rule="evenodd"/></svg>